{"title":"Fer Mamla Gadbad Gadbad (2013) DVDRip - XviD - AC3 - Esub - [DDR","uid":8910677,"size":1566018988,"categoryP":"video","categoryS":"movies","magnet":"?xt=urn:btih:908059e63470efafed218dbdb120ac64ba943dc1&amp;dn=Fer+Mamla+Gadbad+Gadbad+%282013%29+DVDRip+-+XviD+-+AC3+-+Esub+-+%5BDDR&amp;tr=udp%3A%2F%2Ftracker.openbittorrent.com%3A80&amp;tr=udp%3A%2F%2Fopen.demonii.com%3A1337&amp;tr=udp%3A%2F%2Ftracker.coppersurfer.tk%3A6969&amp;tr=udp%3A%2F%2Fexodus.desync.com%3A6969","seeders":1,"leechers":3,"uploader":"SaM","files":-1,"time":1379012934,"description":"Fer Mamla Gadbad Gadbad (2013) DVDRip - XviD - AC3 - Esub - [DDR-Exclusive]\n\nMovie Info\n---------------------------------------------------------------------------------------------------------------------------------------\n\nMovie Name : Fer Mamla Gadbad Gadbad\nStarring : Roshan Prince, Japji Khaira, Bhanushree Mehra, B. N. Sharma, Rana Ranbir\nDirected : Rimpy Prince\nProducer : A Dashmesh Movies Production\nMovie Release Date : 2013\nRipper : AnMoL\nSource : DVD9 My Own Collection\nAudio : Punjabi\nSubtitle : English\n\n---------------------------------------------------------------------------------------------------------------------------------------\nTech Info\n---------------------------------------------------------------------------------------------------------------------------------------\n\nFormat : AVI\nFormat/Info : Audio Video Interleave\nFile size : 1.46 GiB\nDuration : 2h 13mn\nOverall bit rate : 1 566 Kbps\n\nVideo\nCodec ID/Hint : XviD\nDuration : 2h 13mn\nBit rate : 1 108 Kbps\nWidth : 720 pixels\nHeight : 304 pixels\nDisplay aspect ratio : 2.35:1\nFrame rate : 25.000 fps\nColor space : YUV\nChroma subsampling : 4:2:0\nBit depth : 8 bits\nScan type : Progressive\nCompression mode : Lossy\nBits/(Pixel*Frame) : 0.203\nStream size : 1.03 GiB (71%)\n\nAudio\nID : 1\nFormat : AC-3\nFormat/Info : Audio Coding 3\nMode extension : CM (complete main)\nFormat settings, Endianness : Big\nCodec ID : 2000\nDuration : 2h 13mn\nBit rate mode : Constant\nBit rate : 448 Kbps\nChannel(s) : 6 channels\nChannel positions : Front: L C R, Side: L R, LFE\nSampling rate : 48.0 KHz\nBit depth : 16 bits\nCompression mode : Lossy\nStream size : 427 MiB (29%)\n\n---------------------------------------------------------------------------------------------------------------------------------------\nScreen Shot\n\n &lt;a href=&quot;\nhttp://imageshack.us/a/img40/6324/wrjs.png&quot; rel=&quot;nofollow&quot; target=&quot;_NEW&quot;&gt;\nhttp://imageshack.us/a/img40/6324/wrjs.png&lt;/a&gt; &lt;a href=&quot;\nhttp://imageshack.us/a/img29/4674/ulcx.png&quot; rel=&quot;nofollow&quot; target=&quot;_NEW&quot;&gt;\nhttp://imageshack.us/a/img29/4674/ulcx.png&lt;/a&gt; &lt;a href=&quot;\nhttp://imageshack.us/a/img825/9025/2k1j.png&quot; rel=&quot;nofollow&quot; target=&quot;_NEW&quot;&gt;\nhttp://imageshack.us/a/img825/9025/2k1j.png&lt;/a&gt; &lt;a href=&quot;\nhttp://imageshack.us/a/img571/66/zf4t.png&quot; rel=&quot;nofollow&quot; target=&quot;_NEW&quot;&gt;\nhttp://imageshack.us/a/img571/66/zf4t.png&lt;/a&gt; &lt;a href=&quot;\nhttp://imageshack.us/a/img51/7562/snfe.png&quot; rel=&quot;nofollow&quot; target=&quot;_NEW&quot;&gt;\nhttp://imageshack.us/a/img51/7562/snfe.png&lt;/a&gt; &lt;a href=&quot;\nhttp://imageshack.us/a/img547/7651/6rae.png&quot; rel=&quot;nofollow&quot; target=&quot;_NEW&quot;&gt;\nhttp://imageshack.us/a/img547/7651/6rae.png&lt;/a&gt; &lt;a href=&quot;\nhttp://imageshack.us/a/img138/544/7dwg.png&quot; rel=&quot;nofollow&quot; target=&quot;_NEW&quot;&gt;\nhttp://imageshack.us/a/img138/544/7dwg.png&lt;/a&gt; &lt;a href=&quot;\nhttp://imageshack.us/a/img19/7869/f4wc.png&quot; rel=&quot;nofollow&quot; target=&quot;_NEW&quot;&gt;\nhttp://imageshack.us/a/img19/7869/f4wc.png&lt;/a&gt;\n\n","torrent":{"xt":"urn:btih:908059e63470efafed218dbdb120ac64ba943dc1","amp;dn":"Fer+Mamla+Gadbad+Gadbad+%282013%29+DVDRip+-+XviD+-+AC3+-+Esub+-+%5BDDR","amp;tr":["udp%3A%2F%2Ftracker.openbittorrent.com%3A80","udp%3A%2F%2Fopen.demonii.com%3A1337","udp%3A%2F%2Ftracker.coppersurfer.tk%3A6969","udp%3A%2F%2Fexodus.desync.com%3A6969"],"infoHash":"908059e63470efafed218dbdb120ac64ba943dc1","infoHashBuffer":{"type":"Buffer","data":[144,128,89,230,52,112,239,175,237,33,141,189,177,32,172,100,186,148,61,193]},"announce":[],"urlList":[]}}